<svg width="300" height="225" viewBox="0 0 300 225" fill="none" xmlns="http://www.w3.org/2000/svg">
<g clip-path="url(#clip0_1407_33228)">
<path fill-rule="evenodd" clip-rule="evenodd" d="M92.6178 97.3896H74.7421V120.07H92.6178V97.3896ZM54.9404 97.3897H72.8161V120.07H54.9404V97.3897ZM54.9404 122.151H72.8161V145.39H54.9404V122.151ZM74.7422 122.151H92.6179V145.39H74.7422V122.151Z" fill="#F7FCFC"/>
<path fill-rule="evenodd" clip-rule="evenodd" d="M232.677 97.5H214.802V120.18H232.677V97.5ZM195 97.5H212.876V120.18H195V97.5ZM195 122.261H212.876V145.5H195V122.261ZM214.802 122.261H232.677V145.5H214.802V122.261Z" fill="#F7FCFC"/>
<path d="M235.298 164.096H213.467C212.945 164.096 212.522 164.518 212.522 165.04V205.151C212.522 205.673 212.945 206.096 213.467 206.096H235.298C235.819 206.096 236.242 205.673 236.242 205.151V165.04C236.242 164.518 235.819 164.096 235.298 164.096Z" fill="#CBEEED"/>
<path d="M243.935 164.096H222.204C221.655 164.096 221.21 164.541 221.21 165.09V205.102C221.21 205.651 221.655 206.096 222.204 206.096H243.935C244.484 206.096 244.93 205.651 244.93 205.102V165.09C244.93 164.541 244.484 164.096 243.935 164.096Z" fill="#F7FCFC"/>
<path d="M244.979 177.119H220.58V177.572H244.979V177.119Z" fill="#CBEEED"/>
<path d="M244.979 192.73H220.58V193.184H244.979V192.73Z" fill="#CBEEED"/>
<path d="M235.254 166.242H232.799C232.477 166.242 232.213 165.979 232.213 165.657C232.213 165.335 232.476 165.072 232.799 165.072H235.254C235.576 165.072 235.84 165.335 235.84 165.657C235.84 165.979 235.577 166.242 235.254 166.242Z" fill="#E5F7F6"/>
<path d="M234.902 179.46H232.447C232.125 179.46 231.86 179.197 231.86 178.876C231.86 178.554 232.123 178.291 232.447 178.291H234.902C235.223 178.291 235.488 178.554 235.488 178.876C235.488 179.197 235.225 179.46 234.902 179.46Z" fill="#E5F7F6"/>
<path d="M234.902 195.249H232.447C232.125 195.249 231.86 194.987 231.86 194.665C231.86 194.343 232.123 194.08 232.447 194.08H234.902C235.223 194.08 235.488 194.343 235.488 194.665C235.488 194.987 235.225 195.249 234.902 195.249Z" fill="#E5F7F6"/>
<path d="M133.176 179.381H132.259V206.622H133.176V179.381Z" fill="#E5F7F6"/>
<path d="M151.81 179.738H150.893V206.625H151.81V179.738Z" fill="#F7FCFC"/>
<path d="M179.151 179.648H178.233V206.623H179.151V179.648Z" fill="#F7FCFC"/>
<path d="M163.628 179.598H162.711V206.622H163.628V179.598Z" fill="#E5F7F6"/>
<path d="M130.031 178.934C130.031 180.313 131.149 181.428 132.526 181.428H171.949V176.438H132.526C131.147 176.438 130.031 177.555 130.031 178.932V178.934Z" fill="#E5F7F6"/>
<path d="M179.759 176.44H150.23C148.855 176.44 147.739 177.556 147.739 178.931C147.739 180.305 148.853 181.421 150.23 181.421H179.759C181.134 181.421 182.249 180.305 182.249 178.931C182.249 177.556 181.136 176.44 179.759 176.44Z" fill="#F7FCFC"/>
<path d="M139.502 176.465H143.022V171.922H139.502V176.465Z" fill="#CBEEED"/>
<path d="M137.281 176.464H152.386C152.529 176.464 152.646 176.348 152.646 176.205V172.198C152.646 172.055 152.529 171.939 152.386 171.939H137.281C137.137 171.939 137.021 172.055 137.021 172.198V176.205C137.021 176.348 137.137 176.464 137.281 176.464Z" fill="#FFC300"/>
<path d="M149.392 171.941H160.171C160.467 171.941 160.705 172.138 160.778 172.397H149.91C149.625 172.397 149.394 172.618 149.394 172.889V175.438C149.394 175.709 149.625 175.93 149.91 175.93H160.795C160.754 176.23 160.495 176.466 160.169 176.466H149.39C149.035 176.466 148.75 176.193 148.75 175.857V172.553C148.75 172.217 149.037 171.943 149.39 171.943L149.392 171.941Z" fill="#FFEEB7"/>
<path d="M149.396 175.437V172.887C149.396 172.616 149.626 172.396 149.912 172.396H160.78C160.794 172.446 160.812 172.495 160.812 172.549V175.854C160.812 175.88 160.8 175.902 160.796 175.928H149.912C149.626 175.928 149.396 175.708 149.396 175.437Z" fill="#FFFDF5"/>
<path fill-rule="evenodd" clip-rule="evenodd" d="M148.71 102.137C144.531 103.996 142.651 108.89 144.509 113.069C146.368 117.248 151.262 119.128 155.441 117.27C159.62 115.411 161.501 110.517 159.642 106.338C157.783 102.159 152.889 100.278 148.71 102.137ZM143.628 113.461C141.553 108.796 143.653 103.331 148.318 101.256C152.983 99.1812 158.447 101.281 160.523 105.946C162.598 110.611 160.498 116.075 155.833 118.15C151.168 120.226 145.704 118.126 143.628 113.461Z" fill="#FFEEB7"/>
<path fill-rule="evenodd" clip-rule="evenodd" d="M151.586 105.96H152.55V109.224H157.991V110.188H151.586V105.96Z" fill="#FFEEB7"/>
<path d="M91.6726 205.538L88.3773 206.242C85.9791 206.751 83.5479 206.751 81.1497 206.242L77.8544 205.538C77.3308 205.427 76.9353 204.767 76.9097 203.97L75.0755 182.142C75.0682 181.881 75.1817 181.643 75.3501 181.582C76.1081 181.294 79.6338 180.596 84.7635 180.596C89.8932 180.596 93.4153 181.294 94.1769 181.582C94.3453 181.649 94.4588 181.881 94.4515 182.142L92.6173 203.97C92.5917 204.767 92.1962 205.427 91.6726 205.538Z" fill="#FFFDF5"/>
<path d="M88.9569 197.659C88.9569 199.256 87.6621 200.551 86.0649 200.551C84.4677 200.551 83.1729 199.256 83.1729 197.659C83.1729 196.061 84.4677 194.767 86.0649 194.767C87.6621 194.767 88.9569 196.061 88.9569 197.659Z" fill="#FFC300"/>
<path d="M90.4033 203.442C90.4033 204.56 89.497 205.467 88.3789 205.467C87.2609 205.467 86.3545 204.56 86.3545 203.442C86.3545 202.324 87.2609 201.418 88.3789 201.418C89.497 201.418 90.4033 202.324 90.4033 203.442Z" fill="#FFEEB7"/>
<path d="M82.0167 202.286C82.0167 202.925 81.4988 203.443 80.8599 203.443C80.221 203.443 79.7031 202.925 79.7031 202.286C79.7031 201.647 80.221 201.129 80.8599 201.129C81.4988 201.129 82.0167 201.647 82.0167 202.286Z" fill="#FFEEB7"/>
<path d="M182.979 141.75H179.231C178.827 141.75 178.5 142.077 178.5 142.481V146.767C178.5 147.171 178.827 147.498 179.231 147.498H182.979C183.383 147.498 183.711 147.171 183.711 146.767V142.481C183.711 142.077 183.383 141.75 182.979 141.75Z" fill="#FFEEB7"/>
<path fill-rule="evenodd" clip-rule="evenodd" d="M64.7925 155.13H27.75V154.5H64.7925V155.13Z" fill="#E5F7F6"/>
<path fill-rule="evenodd" clip-rule="evenodd" d="M28.9424 154.5H63.7274V198.735H28.9424V154.5ZM29.5724 155.13V198.105H63.0974V155.13H29.5724Z" fill="#E5F7F6"/>
<path fill-rule="evenodd" clip-rule="evenodd" d="M63.4053 170.04H29.2578V169.41H63.4053V170.04Z" fill="#E5F7F6"/>
<path fill-rule="evenodd" clip-rule="evenodd" d="M63.4053 184.087H29.2578V183.457H63.4053V184.087Z" fill="#E5F7F6"/>
<path fill-rule="evenodd" clip-rule="evenodd" d="M48.6308 162.892H43.4258V162.262H48.6308V162.892Z" fill="#E5F7F6"/>
<path fill-rule="evenodd" clip-rule="evenodd" d="M48.6308 176.933H43.4258V176.303H48.6308V176.933Z" fill="#E5F7F6"/>
<path fill-rule="evenodd" clip-rule="evenodd" d="M48.6308 190.981H43.4258V190.351H48.6308V190.981Z" fill="#E5F7F6"/>
<path fill-rule="evenodd" clip-rule="evenodd" d="M32.4675 201.353C31.4639 201.353 30.6525 202.164 30.6525 203.168C30.6525 204.171 31.4639 204.983 32.4675 204.983C33.471 204.983 34.2825 204.171 34.2825 203.168C34.2825 202.164 33.471 201.353 32.4675 201.353ZM30.0225 203.168C30.0225 201.816 31.116 200.723 32.4675 200.723C33.8189 200.723 34.9125 201.816 34.9125 203.168C34.9125 204.519 33.8189 205.613 32.4675 205.613C31.116 205.613 30.0225 204.519 30.0225 203.168Z" fill="#E5F7F6"/>
<path fill-rule="evenodd" clip-rule="evenodd" d="M32.7823 198.428V201.038H32.1523V198.428H32.7823Z" fill="#E5F7F6"/>
<path fill-rule="evenodd" clip-rule="evenodd" d="M60.2321 201.353C59.2286 201.353 58.4171 202.164 58.4171 203.168C58.4171 204.171 59.2286 204.983 60.2321 204.983C61.2356 204.983 62.0471 204.171 62.0471 203.168C62.0471 202.164 61.2356 201.353 60.2321 201.353ZM57.7871 203.168C57.7871 201.816 58.8806 200.723 60.2321 200.723C61.5836 200.723 62.6771 201.816 62.6771 203.168C62.6771 204.519 61.5836 205.613 60.2321 205.613C58.8806 205.613 57.7871 204.519 57.7871 203.168Z" fill="#E5F7F6"/>
<path fill-rule="evenodd" clip-rule="evenodd" d="M60.547 198.428V201.038H59.917V198.428H60.547Z" fill="#E5F7F6"/>
<path fill-rule="evenodd" clip-rule="evenodd" d="M11.25 206.25C11.25 205.836 11.5858 205.5 12 205.5H288C288.414 205.5 288.75 205.836 288.75 206.25C288.75 206.664 288.414 207 288 207H12C11.5858 207 11.25 206.664 11.25 206.25Z" fill="#CBEEED"/>
<path d="M131.921 17.6789L128.591 14.2258C127.867 13.3688 126.783 12.8818 125.597 12.8818H116.721C115.054 12.8818 113.587 14.2036 113.441 15.8353L109.814 53.9999H169.158L172.137 20.6355C172.283 19.0039 171.053 17.6821 169.386 17.6821H131.918L131.921 17.6789Z" fill="#00BCB4"/>
<path d="M121.354 16.9172L117.654 13.3724C116.699 12.4996 115.482 12 114.299 12H105.423C103.76 12 102.647 13.3503 102.941 15.0136L109.815 53.9971H169.159L163.151 19.9308C162.857 18.2643 161.27 16.9172 159.606 16.9172H121.354Z" fill="#01CEC5"/>
<path d="M136.998 25.6304C139.533 25.6304 141.51 26.1295 142.928 27.1278C144.365 28.1261 145.084 29.4239 145.084 31.0212C145.084 31.7799 144.984 32.4687 144.784 33.0877C144.585 33.6866 144.265 34.2257 143.826 34.7049C143.387 35.1841 142.997 35.5634 142.658 35.843C142.339 36.1025 141.869 36.442 141.25 36.8612C139.953 37.7597 139.124 38.4785 138.765 39.0176C138.066 40.0758 137.307 40.6049 136.489 40.6049H134.512C134.033 40.6049 133.633 40.4352 133.314 40.0957C132.994 39.7563 132.905 39.367 133.044 38.9277C133.224 38.2888 133.544 37.6699 134.003 37.0709C134.462 36.4519 134.871 35.9827 135.231 35.6633C135.61 35.3239 136.109 34.9146 136.728 34.4354C137.207 34.056 137.567 33.7665 137.806 33.5668C138.046 33.3472 138.265 33.0877 138.465 32.7882C138.685 32.4887 138.795 32.1992 138.795 31.9197C138.795 30.8215 137.896 30.2725 136.099 30.2725C134.642 30.2725 132.895 30.522 130.858 31.0212C130.459 31.121 130.079 31.0412 129.72 30.7816C129.381 30.522 129.211 30.1826 129.211 29.7633V28.2359C129.211 27.7368 129.361 27.2975 129.66 26.9182C129.98 26.5189 130.389 26.2793 130.888 26.1994C133.004 25.82 135.041 25.6304 136.998 25.6304ZM136.788 43.0008C137.247 43.0008 137.647 43.1705 137.986 43.5099C138.325 43.8493 138.495 44.2487 138.495 44.7079V46.0855C138.495 46.5447 138.325 46.9441 137.986 47.2835C137.647 47.6229 137.247 47.7926 136.788 47.7926H134.212C133.753 47.7926 133.354 47.6229 133.014 47.2835C132.675 46.9441 132.505 46.5447 132.505 46.0855V44.7079C132.505 44.2487 132.675 43.8493 133.014 43.5099C133.354 43.1705 133.753 43.0008 134.212 43.0008H136.788Z" fill="white"/>
<path d="M97.3317 87.6917L96.1778 86.495C95.9269 86.1981 95.551 86.0293 95.1401 86.0293H92.0642C91.4867 86.0293 90.9782 86.4874 90.9278 87.0528L89.6709 100.278H110.236L111.268 88.7163C111.319 88.1508 110.892 87.6928 110.315 87.6928H97.3306L97.3317 87.6917Z" fill="#00BCB4"/>
<path d="M93.6697 87.4267L92.3876 86.1982C92.0567 85.8958 91.6348 85.7227 91.2249 85.7227H88.149C87.5726 85.7227 87.1869 86.1906 87.2888 86.767L89.6711 100.276H110.236L108.154 88.471C108.052 87.8935 107.502 87.4267 106.926 87.4267H93.6697Z" fill="#01CEC5"/>
<path d="M189.574 74.1404L188.132 72.6446C187.818 72.2734 187.348 72.0625 186.835 72.0625H182.99C182.268 72.0625 181.632 72.635 181.569 73.3418L179.998 89.8732H205.705L206.995 75.4211C207.058 74.7143 206.525 74.1418 205.803 74.1418H189.573L189.574 74.1404Z" fill="#00BCB4"/>
<path d="M184.997 73.8106L183.394 72.2751C182.98 71.8971 182.453 71.6807 181.941 71.6807H178.096C177.375 71.6807 176.893 72.2655 177.02 72.986L179.998 89.8721H205.705L203.102 75.116C202.975 74.3941 202.287 73.8106 201.567 73.8106H184.997Z" fill="#01CEC5"/>
<g clip-path="url(#clip1_1407_33228)">
<g clip-path="url(#clip2_1407_33228)">
<path d="M124.867 154.054L106.967 166.028L124.599 192.386L142.499 180.412L124.867 154.054Z" fill="#E5F7F6"/>
<path d="M132.609 179.073C132.962 179.124 133.204 179.454 133.147 179.805C133.091 180.148 132.771 180.383 132.428 180.333L124.789 179.232C124.437 179.182 124.194 178.852 124.251 178.5C124.307 178.157 124.627 177.923 124.971 177.972L132.609 179.073Z" fill="#CBEEED"/>
<path d="M128.666 175.307C128.723 174.959 129.047 174.72 129.396 174.771C129.753 174.822 129.998 175.157 129.941 175.513L128.73 183C128.674 183.348 128.349 183.586 128.001 183.535C127.645 183.484 127.4 183.15 127.457 182.795L128.666 175.307Z" fill="#CBEEED"/>
<path d="M120.572 163.543C120.585 163.562 118.792 164.784 116.566 166.273C114.34 167.761 112.527 168.953 112.514 168.934C112.501 168.915 114.294 167.693 116.52 166.204C118.745 164.716 120.559 163.524 120.572 163.543Z" fill="#CBEEED"/>
<path d="M127.155 161.89C127.168 161.91 124.185 163.928 120.493 166.396C116.8 168.865 113.797 170.852 113.784 170.832C113.771 170.813 116.753 168.797 120.447 166.326C124.138 163.856 127.142 161.87 127.155 161.889V161.89Z" fill="#CBEEED"/>
<path d="M128.475 163.862C128.487 163.881 125.504 165.899 121.812 168.367C118.119 170.837 115.116 172.823 115.104 172.804C115.091 172.785 118.073 170.768 121.766 168.297C125.458 165.828 128.462 163.841 128.475 163.86V163.862Z" fill="#CBEEED"/>
<path d="M129.794 165.837C129.807 165.856 126.823 167.874 123.132 170.342C119.438 172.812 116.436 174.798 116.423 174.779C116.41 174.76 119.392 172.743 123.085 170.272C126.777 167.802 129.781 165.816 129.794 165.835V165.837Z" fill="#CBEEED"/>
<path d="M131.115 167.81C131.128 167.829 128.145 169.848 124.453 172.316C120.759 174.785 117.757 176.771 117.744 176.752C117.731 176.733 120.713 174.717 124.407 172.245C128.098 169.776 131.102 167.79 131.115 167.809V167.81Z" fill="#CBEEED"/>
<path d="M184.725 171.715L169.691 181.771L184.499 203.907L199.532 193.851L184.725 171.715Z" fill="#E5F7F6"/>
<path d="M191.228 192.729C191.524 192.771 191.727 193.048 191.68 193.343C191.634 193.631 191.365 193.829 191.075 193.787L184.661 192.863C184.365 192.821 184.161 192.544 184.209 192.249C184.255 191.96 184.524 191.763 184.813 191.804L191.228 192.729Z" fill="#CBEEED"/>
<path d="M187.917 189.566C187.964 189.274 188.237 189.074 188.53 189.116C188.83 189.159 189.036 189.44 188.988 189.739L187.971 196.027C187.923 196.319 187.651 196.519 187.359 196.477C187.059 196.433 186.853 196.153 186.901 195.854L187.917 189.566Z" fill="#CBEEED"/>
<path d="M181.119 179.687C181.132 179.707 179.627 180.736 177.757 181.985C175.888 183.235 174.362 184.233 174.35 184.213C174.337 184.194 175.841 183.165 177.711 181.915C179.579 180.665 181.106 179.667 181.119 179.686V179.687Z" fill="#CBEEED"/>
<path d="M186.648 178.299C186.661 178.318 184.158 180.016 181.056 182.09C177.955 184.164 175.431 185.829 175.418 185.81C175.405 185.791 177.908 184.095 181.01 182.019C184.11 179.945 186.635 178.28 186.648 178.299Z" fill="#CBEEED"/>
<path d="M187.756 179.956C187.769 179.975 185.266 181.673 182.165 183.747C179.063 185.821 176.539 187.486 176.526 187.467C176.514 187.448 179.017 185.752 182.118 183.677C185.218 181.603 187.744 179.937 187.756 179.956Z" fill="#CBEEED"/>
<path d="M188.863 181.613C188.876 181.632 186.372 183.33 183.271 185.402C180.17 187.476 177.646 189.142 177.633 189.122C177.62 189.103 180.123 187.407 183.225 185.332C186.325 183.258 188.85 181.592 188.863 181.611V181.613Z" fill="#CBEEED"/>
<path d="M189.972 183.268C189.985 183.287 187.482 184.984 184.38 187.058C181.279 189.132 178.755 190.798 178.742 190.779C178.729 190.76 181.233 189.064 184.334 186.988C187.434 184.914 189.959 183.249 189.972 183.268Z" fill="#CBEEED"/>
<path d="M160.943 155.023L144.539 146.25L131.621 170.403L148.024 179.176L160.943 155.023Z" fill="#E5F7F6"/>
<path d="M145.027 171.094C145.131 171.384 144.978 171.703 144.687 171.802C144.403 171.899 144.094 171.751 143.992 171.468L141.725 165.2C141.621 164.911 141.773 164.593 142.064 164.493C142.348 164.396 142.657 164.544 142.759 164.826L145.027 171.094Z" fill="#CBEEED"/>
<path d="M146.294 166.558C146.582 166.46 146.895 166.61 146.999 166.896C147.105 167.189 146.95 167.512 146.655 167.613L140.456 169.734C140.169 169.833 139.856 169.683 139.753 169.398C139.647 169.105 139.801 168.782 140.096 168.681L146.294 166.558Z" fill="#CBEEED"/>
<path d="M151.965 155.606C151.952 155.63 150.288 154.765 148.25 153.674C146.209 152.583 144.567 151.68 144.58 151.656C144.593 151.632 146.257 152.497 148.296 153.588C150.335 154.679 151.978 155.582 151.965 155.606Z" fill="#CBEEED"/>
<path d="M155.901 159.949C155.888 159.973 153.135 158.526 149.752 156.717C146.369 154.908 143.636 153.421 143.648 153.397C143.661 153.373 146.415 154.82 149.799 156.631C153.181 158.44 155.914 159.927 155.901 159.951V159.949Z" fill="#CBEEED"/>
<path d="M154.934 161.759C154.922 161.782 152.168 160.335 148.786 158.526C145.402 156.717 142.669 155.23 142.682 155.206C142.694 155.182 145.448 156.629 148.832 158.44C152.214 160.249 154.947 161.736 154.934 161.76V161.759Z" fill="#CBEEED"/>
<path d="M153.968 163.566C153.955 163.59 151.201 162.143 147.819 160.334C144.435 158.525 141.702 157.038 141.715 157.014C141.728 156.99 144.481 158.437 147.865 160.248C151.247 162.057 153.98 163.544 153.968 163.568V163.566Z" fill="#CBEEED"/>
<path d="M153.001 165.375C152.988 165.399 150.234 163.952 146.852 162.143C143.468 160.333 140.735 158.846 140.748 158.823C140.761 158.799 143.515 160.246 146.898 162.056C150.281 163.866 153.013 165.352 153.001 165.376V165.375Z" fill="#CBEEED"/>
<path d="M143.025 173.321L137.383 202.324L136.645 206.121L174.305 205.936C175.995 205.928 177.493 204.427 178.037 202.198L184.715 174.816C185.129 173.123 184.222 171.363 182.94 171.363L144.823 171.403C143.98 171.403 143.245 172.19 143.025 173.321Z" fill="#01CEC5"/>
<g opacity="0.5">
<path d="M143.025 173.321L137.383 202.324L136.645 206.121L174.305 205.936C175.995 205.928 177.493 204.427 178.037 202.198L184.715 174.816C185.129 173.123 184.222 171.363 182.94 171.363L144.823 171.403C143.98 171.403 143.245 172.19 143.025 173.321Z" fill="#0F0F0F"/>
</g>
<path d="M170.693 200.358L166.706 168.226C166.543 166.91 165.494 165.927 164.256 165.932L155.511 165.96C154.864 165.962 154.243 166.238 153.784 166.726L149.632 171.139L125.314 171.267C123.828 171.275 122.686 172.68 122.882 174.261L126.585 203.959C126.75 205.273 127.796 206.254 129.033 206.251L171.414 206.168C176.135 206.266 176.585 204.873 176.585 204.873C171.175 206.071 170.693 200.363 170.693 200.36V200.358Z" fill="#01CEC5"/>
<g opacity="0.5">
<path d="M151.626 193.214C152.062 193.606 152.092 194.279 151.692 194.708C151.302 195.127 150.649 195.156 150.224 194.773L140.774 186.271C140.338 185.879 140.308 185.207 140.707 184.778C141.097 184.359 141.75 184.33 142.176 184.713L151.626 193.214Z" fill="white"/>
<path d="M149.679 184.447C150.073 184.023 150.735 183.994 151.166 184.381C151.607 184.778 151.637 185.46 151.233 185.894L142.721 195.037C142.326 195.462 141.664 195.491 141.233 195.103C140.791 194.706 140.761 194.024 141.166 193.59L149.679 184.447Z" fill="white"/>
</g>
</g>
<path d="M123.827 99.3782C123.757 99.5772 123.623 99.7109 123.425 99.7793C123.226 99.8476 123.039 99.8207 122.863 99.6985C122.659 99.557 122.52 99.3713 122.446 99.1415C122.369 98.8959 122.383 98.6582 122.487 98.4285C122.941 97.3975 123.451 96.4741 124.017 95.658C124.776 94.5638 125.576 93.8758 126.417 93.5938C127.255 93.2962 128.031 93.395 128.745 93.8902C129.07 94.1153 129.333 94.3596 129.535 94.6232C129.727 94.8803 129.858 95.1769 129.927 95.5132C130.002 95.8401 130.052 96.1149 130.076 96.3376C130.091 96.5539 130.098 96.8608 130.097 97.2584C130.095 97.6966 130.103 98.0317 130.12 98.2637C130.135 98.4799 130.193 98.7533 130.293 99.0839C130.384 99.408 130.529 99.694 130.728 99.9418C130.896 100.155 131 100.391 131.039 100.652C131.078 100.912 131.027 101.145 130.885 101.349C130.737 101.562 130.538 101.691 130.287 101.737C130.033 101.767 129.816 101.692 129.638 101.514C129.398 101.265 129.209 101.003 129.07 100.728C128.922 100.447 128.823 100.145 128.772 99.8213C128.713 99.4915 128.677 99.2263 128.665 99.0258C128.65 98.8095 128.641 98.5151 128.639 98.1425C128.638 97.6886 128.628 97.3456 128.611 97.1136C128.584 96.8752 128.507 96.6093 128.381 96.3159C128.246 96.016 128.044 95.7728 127.775 95.5863C126.959 95.0203 126.085 95.4096 125.152 96.7542C124.644 97.4868 124.202 98.3614 123.827 99.3782ZM132.039 102.21L132.097 102.127C132.245 101.914 132.452 101.783 132.719 101.735C132.986 101.686 133.226 101.736 133.439 101.884L133.662 102.038C133.875 102.186 134.006 102.394 134.054 102.661C134.103 102.928 134.053 103.168 133.905 103.381L133.847 103.465C133.699 103.678 133.492 103.809 133.225 103.857C132.958 103.905 132.718 103.855 132.504 103.707L132.282 103.553C132.068 103.405 131.938 103.198 131.889 102.931C131.841 102.664 131.891 102.424 132.039 102.21Z" fill="#252525"/>
<path d="M159.345 82.3392C158.906 82.3853 158.533 82.2507 158.226 81.9355C157.919 81.6202 157.803 81.2411 157.878 80.7981C157.964 80.2851 158.192 79.8559 158.561 79.5104C158.958 79.1455 159.421 78.9595 159.95 78.9524C162.309 78.8933 164.515 79.036 166.567 79.3807C169.318 79.8429 171.337 80.7453 172.621 82.088C173.934 83.4113 174.439 84.9706 174.137 86.766C174 87.5821 173.772 88.299 173.452 88.9166C173.137 89.5109 172.691 90.0235 172.115 90.4542C171.563 90.8888 171.086 91.2283 170.685 91.4727C170.289 91.6937 169.713 91.9806 168.958 92.3334C168.126 92.721 167.498 93.0351 167.074 93.2755C166.677 93.4966 166.21 93.8497 165.673 94.3349C165.14 94.7968 164.727 95.3268 164.435 95.925C164.182 96.4339 163.826 96.8416 163.367 97.1481C162.907 97.4546 162.421 97.5647 161.908 97.4786C161.372 97.3885 160.949 97.1256 160.638 96.6898C160.355 96.2347 160.303 95.7584 160.483 95.2611C160.74 94.5851 161.068 93.9928 161.465 93.4841C161.866 92.9521 162.35 92.494 162.918 92.1099C163.49 91.7025 163.961 91.398 164.33 91.1963C164.727 90.9753 165.278 90.6961 165.981 90.3589C166.841 89.9518 167.483 89.6281 167.907 89.3876C168.335 89.1239 168.771 88.7415 169.214 88.2407C169.662 87.7165 169.943 87.1163 170.056 86.4401C170.401 84.3882 168.883 83.0783 165.502 82.5103C163.66 82.2009 161.607 82.1439 159.345 82.3392ZM161.304 100.434L161.514 100.469C162.05 100.559 162.483 100.836 162.813 101.299C163.143 101.762 163.263 102.261 163.173 102.798L163.079 103.357C162.989 103.894 162.712 104.327 162.249 104.656C161.786 104.986 161.287 105.106 160.75 105.016L160.54 104.981C160.004 104.891 159.571 104.614 159.241 104.151C158.911 103.688 158.792 103.188 158.882 102.652L158.976 102.093C159.066 101.556 159.342 101.123 159.805 100.793C160.268 100.464 160.768 100.344 161.304 100.434Z" fill="#252525"/>
<path d="M152.552 106.717C152.605 106.607 152.702 106.529 152.843 106.484C152.984 106.439 153.116 106.445 153.238 106.502C153.379 106.569 153.473 106.662 153.521 106.782C153.57 106.91 153.556 107.038 153.478 107.166C153.138 107.739 152.761 108.256 152.346 108.718C151.79 109.338 151.213 109.743 150.615 109.931C150.019 110.128 149.474 110.11 148.98 109.876C148.756 109.77 148.575 109.651 148.438 109.518C148.308 109.389 148.221 109.236 148.179 109.059C148.132 108.887 148.103 108.742 148.09 108.624C148.084 108.509 148.085 108.345 148.093 108.132C148.103 107.897 148.104 107.718 148.096 107.594C148.09 107.479 148.054 107.335 147.99 107.162C147.932 106.993 147.836 106.846 147.7 106.722C147.586 106.615 147.517 106.493 147.495 106.355C147.472 106.218 147.513 106.091 147.617 105.975C147.725 105.854 147.868 105.776 148.046 105.741C148.226 105.713 148.377 105.744 148.499 105.831C148.663 105.954 148.791 106.086 148.884 106.227C148.983 106.371 149.047 106.528 149.076 106.699C149.112 106.874 149.132 107.014 149.136 107.121C149.143 107.236 149.143 107.394 149.138 107.593C149.13 107.836 149.129 108.019 149.137 108.143C149.152 108.27 149.201 108.409 149.284 108.56C149.373 108.715 149.511 108.836 149.697 108.924C150.261 109.191 150.884 108.944 151.568 108.182C151.94 107.767 152.268 107.278 152.552 106.717ZM146.821 105.565L146.778 105.612C146.67 105.733 146.521 105.812 146.332 105.85C146.143 105.888 145.975 105.872 145.827 105.802L145.674 105.729C145.526 105.66 145.438 105.554 145.409 105.413C145.38 105.272 145.42 105.142 145.528 105.021L145.571 104.973C145.679 104.853 145.828 104.773 146.017 104.736C146.206 104.698 146.374 104.714 146.522 104.784L146.676 104.856C146.823 104.926 146.911 105.031 146.94 105.172C146.969 105.313 146.929 105.444 146.821 105.565Z" fill="#CBEEED"/>
<path d="M186.897 110.266C186.795 110.177 186.741 110.05 186.735 109.884C186.728 109.719 186.774 109.58 186.872 109.467C186.986 109.335 187.115 109.262 187.257 109.247C187.41 109.232 187.543 109.285 187.657 109.407C188.169 109.944 188.612 110.503 188.984 111.087C189.483 111.869 189.744 112.609 189.768 113.308C189.8 114.007 189.617 114.586 189.219 115.046C189.038 115.255 188.856 115.413 188.673 115.521C188.495 115.622 188.305 115.669 188.102 115.661C187.904 115.66 187.74 115.648 187.609 115.627C187.483 115.599 187.307 115.548 187.081 115.476C186.832 115.395 186.64 115.34 186.505 115.312C186.38 115.284 186.215 115.279 186.01 115.296C185.811 115.308 185.624 115.367 185.451 115.476C185.302 115.567 185.151 115.603 184.996 115.586C184.841 115.569 184.717 115.488 184.624 115.342C184.527 115.189 184.486 115.012 184.501 114.811C184.526 114.61 184.603 114.457 184.734 114.352C184.915 114.213 185.094 114.114 185.274 114.057C185.458 113.994 185.646 113.972 185.838 113.992C186.036 114.006 186.193 114.026 186.309 114.054C186.434 114.081 186.603 114.128 186.816 114.194C187.074 114.275 187.271 114.33 187.406 114.358C187.546 114.381 187.71 114.37 187.898 114.326C188.09 114.276 188.262 114.165 188.412 113.992C188.867 113.466 188.788 112.723 188.175 111.762C187.841 111.238 187.415 110.74 186.897 110.266ZM183.946 116.073L183.984 116.133C184.081 116.285 184.122 116.469 184.106 116.683C184.089 116.897 184.022 117.073 183.903 117.21L183.779 117.354C183.66 117.491 183.52 117.554 183.361 117.543C183.201 117.532 183.072 117.45 182.975 117.297L182.937 117.238C182.84 117.085 182.799 116.902 182.815 116.688C182.831 116.473 182.899 116.298 183.018 116.16L183.142 116.017C183.261 115.88 183.4 115.817 183.56 115.828C183.72 115.839 183.848 115.921 183.946 116.073Z" fill="#CBEEED"/>
<path d="M156.13 131.277C156.252 131.368 156.325 131.506 156.347 131.69C156.369 131.875 156.33 132.035 156.231 132.171C156.115 132.329 155.978 132.423 155.819 132.453C155.649 132.483 155.495 132.435 155.357 132.309C154.733 131.754 154.186 131.167 153.715 130.547C153.084 129.715 152.724 128.908 152.634 128.128C152.534 127.347 152.686 126.68 153.091 126.129C153.275 125.878 153.465 125.684 153.66 125.546C153.85 125.416 154.059 125.346 154.287 125.337C154.51 125.32 154.695 125.318 154.844 125.331C154.987 125.35 155.189 125.391 155.449 125.452C155.736 125.52 155.956 125.563 156.11 125.583C156.253 125.603 156.439 125.594 156.667 125.556C156.889 125.525 157.093 125.441 157.278 125.303C157.436 125.188 157.603 125.133 157.778 125.138C157.953 125.143 158.099 125.223 158.217 125.378C158.34 125.54 158.402 125.735 158.403 125.963C158.394 126.19 158.321 126.369 158.184 126.498C157.994 126.671 157.801 126.797 157.606 126.878C157.405 126.965 157.195 127.007 156.978 127.002C156.755 127.005 156.578 126.996 156.445 126.976C156.302 126.956 156.108 126.919 155.864 126.865C155.566 126.798 155.341 126.754 155.187 126.734C155.028 126.722 154.845 126.749 154.638 126.815C154.427 126.888 154.245 127.029 154.092 127.237C153.63 127.868 153.786 128.694 154.561 129.716C154.983 130.273 155.506 130.793 156.13 131.277ZM158.911 124.496L158.863 124.433C158.74 124.271 158.678 124.069 158.676 123.827C158.675 123.585 158.734 123.382 158.855 123.217L158.982 123.045C159.103 122.88 159.253 122.797 159.433 122.795C159.614 122.793 159.765 122.873 159.888 123.035L159.936 123.099C160.059 123.261 160.122 123.463 160.123 123.704C160.125 123.946 160.065 124.149 159.944 124.314L159.818 124.486C159.697 124.651 159.546 124.734 159.366 124.736C159.186 124.738 159.034 124.658 158.911 124.496Z" fill="#E5F7F6"/>
<path d="M138.825 82.6548C138.689 82.7229 138.533 82.7252 138.358 82.6617C138.184 82.5981 138.058 82.491 137.982 82.3404C137.893 82.1659 137.872 82.001 137.917 81.8456C137.966 81.6807 138.079 81.565 138.254 81.4985C139.031 81.1929 139.802 80.9706 140.568 80.8315C141.595 80.6449 142.478 80.6882 143.215 80.9614C143.956 81.225 144.482 81.6622 144.791 82.2728C144.931 82.5504 145.019 82.8073 145.053 83.0436C145.083 83.272 145.051 83.49 144.956 83.6977C144.87 83.9038 144.788 84.0702 144.71 84.197C144.628 84.3159 144.5 84.4776 144.328 84.682C144.138 84.9071 143.999 85.0838 143.912 85.2122C143.83 85.3311 143.754 85.5007 143.685 85.7211C143.612 85.9335 143.595 86.1531 143.634 86.3799C143.665 86.5734 143.639 86.747 143.555 86.9007C143.471 87.0545 143.334 87.1488 143.142 87.1836C142.942 87.2199 142.74 87.1873 142.537 87.0857C142.338 86.9746 142.212 86.8286 142.158 86.6478C142.09 86.4004 142.064 86.1713 142.081 85.9604C142.094 85.7416 142.152 85.5363 142.254 85.3445C142.353 85.1447 142.441 84.9902 142.518 84.8808C142.601 84.7619 142.721 84.6058 142.88 84.4124C143.075 84.1779 143.216 83.9964 143.303 83.868C143.386 83.7317 143.445 83.5565 143.479 83.3424C143.509 83.1205 143.466 82.8945 143.35 82.6645C142.996 81.9666 142.189 81.7322 140.927 81.9615C140.239 82.0863 139.538 82.3174 138.825 82.6548ZM143.615 88.2018L143.693 88.1876C143.894 88.1513 144.102 88.187 144.318 88.295C144.534 88.4029 144.688 88.5481 144.781 88.7305L144.877 88.9209C144.97 89.1033 144.976 89.2753 144.896 89.437C144.816 89.5987 144.676 89.6977 144.476 89.7341L144.398 89.7483C144.198 89.7847 143.989 89.7489 143.773 89.6409C143.557 89.533 143.403 89.3878 143.31 89.2054L143.214 89.0151C143.122 88.8327 143.115 88.6606 143.195 88.4989C143.275 88.3372 143.415 88.2382 143.615 88.2018Z" fill="#E5F7F6"/>
<path d="M132.177 126.76L128.049 131.136L129.713 133.871L134.071 129.12L132.177 126.76Z" fill="#FCDAC6"/>
<path d="M113.595 118.862C113.595 118.862 112.5 121.337 117.735 133.884C117.735 133.884 120.604 139.107 121.851 139.271C123.891 139.537 129.592 136.48 133.932 130.222L130.651 127.789L124.23 131.493L120.465 121.773C120.465 121.773 118.262 115.291 113.607 118.862H113.595Z" fill="#00BCB4"/>
<path fill-rule="evenodd" clip-rule="evenodd" d="M124.125 131.288C124.125 131.288 124.125 131.288 124.224 131.492C124.322 131.697 124.322 131.697 124.322 131.697L124.323 131.697L124.323 131.697L124.323 131.696C124.324 131.696 124.323 131.696 124.323 131.697L124.317 131.7C124.311 131.703 124.3 131.709 124.286 131.717C124.258 131.735 124.215 131.763 124.161 131.804C124.054 131.886 123.905 132.02 123.751 132.222C123.445 132.625 123.107 133.308 123.04 134.411L122.587 134.384C122.659 133.194 123.027 132.424 123.39 131.947C123.571 131.71 123.749 131.548 123.885 131.444C123.952 131.392 124.01 131.354 124.051 131.329C124.072 131.316 124.089 131.307 124.102 131.3C124.108 131.297 124.113 131.294 124.117 131.292L124.122 131.29L124.124 131.289L124.125 131.288L124.125 131.288Z" fill="#01CEC5"/>
<path d="M134.071 129.121C134.071 129.121 139.646 129.084 140.021 125.338L132.177 126.754L134.071 129.121Z" fill="#FCDAC6"/>
<path d="M121.307 126.762H130.216V125.334H121.307C120.914 125.334 120.593 125.655 120.593 126.048C120.593 126.442 120.914 126.762 121.307 126.762Z" fill="#CBEEED"/>
<path d="M128.551 126.76H145.316C146.285 126.76 147.132 126.119 147.386 125.187L150.655 113.439C150.945 112.398 150.164 111.375 149.087 111.375H133.689C133.048 111.375 132.479 111.811 132.315 112.434L128.551 126.76Z" fill="#E5F7F6"/>
<path d="M138.762 119.721C138.762 120.598 139.47 121.306 140.347 121.306C141.225 121.306 141.933 120.598 141.933 119.721C141.933 118.843 141.225 118.135 140.347 118.135C139.47 118.135 138.762 118.843 138.762 119.721Z" fill="#CBEEED"/>
<path d="M107.89 114.351L99.3136 118.152C98.7023 118.424 98.3452 119.059 98.4239 119.719L99.6949 144.589H117.901L118.548 120.04C118.627 119.368 118.391 118.696 117.901 118.224L112.611 114.32L107.884 114.351H107.89Z" fill="#01CEC5"/>
<path d="M118.113 100.184C118.113 100.184 120.031 102.229 117.647 105.443L115.686 100.916L118.113 100.184Z" fill="#0F0F0F"/>
<path d="M107.181 105.832L113.185 109.984L113.264 114.759L111.099 117.151L106.182 115.322L106.073 108.205L107.181 105.832Z" fill="#FDEDE4"/>
<path d="M113.519 114.906L113.267 114.751L111.1 117.151L113.875 118.876V115.544C113.875 115.284 113.74 115.043 113.519 114.906Z" fill="#FFC300"/>
<path d="M108.249 120.002L111.099 117.152L106.149 114.977L105.937 115.1C105.564 115.318 105.451 115.805 105.691 116.164L108.249 120.002Z" fill="#FFC300"/>
<path d="M113.246 113.923C113.246 113.923 107.447 114.48 107.889 106.6L109.862 107.737L113.288 111.563L113.24 113.923H113.246Z" fill="#FCDAC6"/>
<path d="M108.126 100.573L115.003 99.7702C116.338 99.6144 117.546 100.57 117.702 101.905L118.267 106.738C118.603 109.624 116.538 112.235 113.652 112.572L113.46 112.595C110.574 112.932 107.963 110.866 107.626 107.981L106.937 102.083C106.85 101.338 107.386 100.66 108.132 100.573L108.126 100.573Z" fill="#FDEDE4"/>
<path d="M105.032 99.3899C105.565 95.8129 108.416 95.589 109.178 95.5345C109.941 95.48 112.041 96.1761 113.016 95.4619C113.942 94.784 115.08 93.3011 117.664 93.8822C119.437 94.2816 120.714 96.9145 118.941 99.5776C117.289 102.059 109.862 101.853 108.307 101.787C108.591 102.919 109.124 105.739 107.744 106.901C107.496 108.717 106.116 109.831 106.116 109.831C97.8965 100.661 105.026 99.396 105.026 99.396L105.032 99.3899Z" fill="#0F0F0F"/>
<path d="M108.64 105.854C108.761 106.895 108.016 107.833 106.981 107.954C105.94 108.075 105.002 107.331 104.881 106.296C104.76 105.261 105.504 104.317 106.539 104.196C107.58 104.074 108.519 104.819 108.64 105.86V105.854Z" fill="#FDEDE4"/>
<path fill-rule="evenodd" clip-rule="evenodd" d="M111.052 117.882C111.178 117.88 111.281 117.98 111.283 118.106L111.056 118.109L110.829 118.112C110.827 117.987 110.927 117.884 111.052 117.882ZM111.625 125.647C111.494 124.755 111.408 122.876 111.355 121.207C111.329 120.375 111.31 119.599 111.299 119.032C111.293 118.748 111.289 118.517 111.286 118.356L111.283 118.17L111.283 118.106L111.056 118.109C110.829 118.112 110.829 118.112 110.829 118.112L110.83 118.177L110.833 118.363C110.835 118.525 110.839 118.757 110.845 119.041C110.857 119.61 110.875 120.387 110.901 121.221C110.954 122.883 111.041 124.79 111.176 125.713C111.745 129.516 111.639 132.802 111.392 135.135C111.268 136.301 111.109 137.229 110.981 137.865C110.918 138.183 110.861 138.427 110.821 138.591C110.801 138.674 110.786 138.736 110.775 138.777C110.769 138.798 110.765 138.813 110.762 138.823L110.759 138.835L110.759 138.837C110.759 138.837 110.759 138.837 110.759 138.837C110.725 138.958 110.795 139.084 110.915 139.118C111.036 139.152 111.161 139.081 111.195 138.961L110.977 138.899C111.195 138.961 111.195 138.961 111.195 138.961L111.196 138.959L111.197 138.956L111.2 138.943C111.203 138.931 111.208 138.914 111.214 138.892C111.225 138.848 111.242 138.784 111.263 138.699C111.304 138.529 111.361 138.278 111.426 137.954C111.557 137.307 111.718 136.365 111.843 135.183C112.094 132.819 112.2 129.495 111.625 125.647Z" fill="#00BCB4"/>
<path fill-rule="evenodd" clip-rule="evenodd" d="M116.273 119.235C116.394 119.201 116.519 119.272 116.552 119.393L116.334 119.454C116.552 119.393 116.552 119.393 116.552 119.393L116.553 119.394L116.554 119.397L116.557 119.41C116.56 119.421 116.564 119.437 116.57 119.458C116.581 119.5 116.596 119.561 116.616 119.642C116.656 119.804 116.711 120.043 116.774 120.351C116.901 120.969 117.061 121.867 117.195 122.994C117.463 125.248 117.627 128.419 117.213 132.092C117.199 132.217 117.087 132.307 116.962 132.293C116.837 132.279 116.748 132.166 116.762 132.042C117.171 128.41 117.009 125.274 116.744 123.048C116.612 121.934 116.454 121.049 116.329 120.443C116.267 120.14 116.213 119.906 116.175 119.75C116.156 119.671 116.141 119.612 116.131 119.572L116.119 119.528L116.116 119.517L116.115 119.515" fill="#00BCB4"/>
<path d="M108.283 136.19L102.558 136.062L101.789 139.167L108.229 138.913L108.283 136.19Z" fill="#FDEDE4"/>
<path d="M108.284 136.189L111.873 132.648C112.054 132.467 112.339 132.442 112.551 132.582C112.793 132.739 112.865 133.054 112.726 133.308L112.018 134.549L115.135 134.373C115.541 134.361 115.837 134.742 115.716 135.13L115.056 137.309C115.002 137.49 114.869 137.629 114.693 137.69C113.471 138.114 110.245 139.718 108.241 138.913L108.296 136.189H108.284Z" fill="#FDEDE4"/>
<path d="M98.9867 118.358C98.9867 118.358 96.5233 119.436 92.0808 131.765C92.0808 131.765 90.4042 136.51 91.2274 137.418C92.571 138.907 99.2106 141.188 106.607 139.476L106.698 135.433L98.5146 134.192L102.17 124.822C102.17 124.822 104.839 118.77 98.9867 118.358Z" fill="#01CEC5"/>
<path fill-rule="evenodd" clip-rule="evenodd" d="M101.917 124.678C102.026 124.702 102.096 124.809 102.072 124.919C101.167 129.144 99.1832 133.462 98.3027 135.097C98.2497 135.196 98.1269 135.233 98.0284 135.18C97.9299 135.127 97.8931 135.004 97.9461 134.905C98.8156 133.291 100.782 129.009 101.676 124.834C101.7 124.725 101.807 124.655 101.917 124.678Z" fill="#00BCB4"/>
<path fill-rule="evenodd" clip-rule="evenodd" d="M98.4997 134.25C98.5185 134.126 98.6342 134.04 98.7581 134.059L106.924 135.237V140.479L106.747 140.519C106.415 140.595 105.875 140.629 105.27 140.642C104.659 140.655 103.963 140.647 103.307 140.629C102.651 140.612 102.034 140.586 101.58 140.564C101.354 140.553 101.168 140.543 101.039 140.536C100.974 140.532 100.924 140.53 100.89 140.528L100.85 140.525L100.838 140.525L100.837 140.524C100.712 140.517 100.616 140.409 100.624 140.284C100.632 140.159 100.739 140.064 100.864 140.071L100.851 140.298C100.864 140.072 100.864 140.071 100.864 140.071L100.916 140.074C100.95 140.076 101 140.079 101.064 140.083C101.192 140.09 101.377 140.1 101.602 140.11C102.053 140.132 102.667 140.158 103.319 140.175C103.972 140.193 104.66 140.201 105.26 140.188C105.756 140.178 106.178 140.153 106.47 140.109V135.627L98.69 134.508C98.5661 134.489 98.4809 134.374 98.4997 134.25Z" fill="#00BCB4"/>
<path d="M109.585 198.382H114.427V202.013H109.585V198.382Z" fill="#FCDAC6"/>
<path d="M109.585 198.988H114.427V197.173H109.585V198.988Z" fill="#F9BE00"/>
<path d="M108.699 201.15C108.812 200.788 109.218 200.645 109.504 200.866C110.061 201.306 111.055 201.825 112.492 201.64C113.982 201.448 113.911 200.603 114.099 199.999C114.197 199.679 114.513 199.509 114.799 199.636L122.807 203.644C123.364 203.885 123.815 204.362 124.049 204.958C124.267 205.52 123.89 206.244 123.319 206.252H109.459C108.842 206.252 108.353 205.697 108.376 205.037L108.519 201.768C108.519 201.711 108.534 201.661 108.549 201.612L108.699 201.143V201.15Z" fill="#0F0F0F"/>
<path d="M117.907 144.598L117.368 173.172L115.401 197.83L108.677 197.836L109.911 173.178L110.42 144.598H117.907Z" fill="#252525"/>
<path fill-rule="evenodd" clip-rule="evenodd" d="M112.341 151.419V146.244H112.795V151.419C112.795 153.133 111.967 154.739 110.569 155.726L110.564 155.73L110.564 155.73L110.546 155.742L110.294 155.364L110.31 155.354C111.585 154.452 112.341 152.985 112.341 151.419Z" fill="#0F0F0F"/>
<path fill-rule="evenodd" clip-rule="evenodd" d="M115.631 195.466H108.798V195.012H115.631V195.466Z" fill="#0F0F0F"/>
<path d="M99.2949 198.382H104.137V202.013H99.2949V198.382Z" fill="#FDEDE4"/>
<path d="M99.2949 198.988H104.137V197.173H99.2949V198.988Z" fill="#FFC300"/>
<path d="M98.4091 201.15C98.522 200.788 98.9283 200.645 99.2143 200.866C99.7712 201.306 100.765 201.825 102.202 201.64C103.692 201.448 103.621 200.603 103.809 199.999C103.907 199.679 104.223 199.509 104.509 199.636L112.517 203.644C113.074 203.885 113.525 204.362 113.758 204.958C113.977 205.52 113.6 206.244 113.029 206.252H99.1691C98.5521 206.252 98.0629 205.697 98.0855 205.037L98.2285 201.768C98.2285 201.711 98.2435 201.661 98.2586 201.612L98.4091 201.143V201.15Z" fill="#252525"/>
<path d="M100.009 144.598L100.257 173.474L98.6289 197.836L105.347 197.83L108.089 173.317L112.017 144.598H100.009Z" fill="#252525"/>
<path fill-rule="evenodd" clip-rule="evenodd" d="M117.906 146.472H100.088V146.018H117.906V146.472Z" fill="#0F0F0F"/>
<path fill-rule="evenodd" clip-rule="evenodd" d="M110.658 157.776C110.656 158.127 110.652 158.371 110.645 158.435L110.194 158.386C110.194 158.386 110.194 158.382 110.195 158.372C110.195 158.362 110.196 158.349 110.196 158.333C110.197 158.301 110.198 158.258 110.199 158.205C110.201 158.098 110.203 157.952 110.205 157.773C110.207 157.414 110.209 156.922 110.21 156.342C110.212 155.183 110.211 153.674 110.208 152.178C110.206 150.681 110.202 149.196 110.198 148.086C110.197 147.531 110.195 147.069 110.194 146.747L110.192 146.24C110.192 146.24 110.192 146.24 110.419 146.239C110.646 146.238 110.646 146.238 110.646 146.238L110.648 146.745C110.649 147.068 110.651 147.53 110.652 148.085C110.656 149.195 110.66 150.68 110.662 152.177C110.665 153.674 110.666 155.183 110.664 156.343C110.663 156.923 110.661 157.416 110.658 157.776Z" fill="#0F0F0F"/>
<path fill-rule="evenodd" clip-rule="evenodd" d="M105.703 195.466H98.8701V195.012H105.703V195.466Z" fill="#0F0F0F"/>
</g>
</g>
<defs>
<clipPath id="clip0_1407_33228">
<rect width="300" height="225" fill="white"/>
</clipPath>
<clipPath id="clip1_1407_33228">
<rect width="112.5" height="150" fill="white" transform="translate(85 75)"/>
</clipPath>
<clipPath id="clip2_1407_33228">
<rect width="92.5664" height="60" fill="white" transform="translate(106.967 146.25)"/>
</clipPath>
</defs>
</svg>
